<svg width="224" height="90" viewBox="0 0 224 90" fill="none" xmlns="http://www.w3.org/2000/svg">
<rect x="1" y="1" width="222" height="88" rx="7" fill="white" stroke="white" stroke-width="2"/>
<path d="M56.7942 43.9785C56.8295 41.244 58.263 38.7183 60.5926 37.286C59.1163 35.1776 56.7322 33.8887 54.1595 33.8082C51.4529 33.5241 48.8289 35.4278 47.4496 35.4278C46.0436 35.4278 43.92 33.8364 41.6332 33.8835C38.6245 33.9807 35.8875 35.6499 34.4236 38.2803C31.3064 43.6774 33.6316 51.6094 36.6177 55.972C38.1117 58.1083 39.8577 60.4945 42.1425 60.4099C44.3782 60.3172 45.2132 58.9843 47.9119 58.9843C50.5855 58.9843 51.3689 60.4099 53.7 60.3561C56.099 60.3172 57.6105 58.2104 59.0521 56.0539C60.1256 54.5317 60.9516 52.8494 61.4996 51.0693C58.6502 49.8641 56.7975 47.0722 56.7942 43.9785Z" fill="#131313"/>
<path d="M52.3911 30.9388C53.6992 29.3686 54.3436 27.3502 54.1876 25.3125C52.1892 25.5224 50.3432 26.4775 49.0175 27.9875C47.7084 29.4774 47.0452 31.4265 47.174 33.4055C49.1992 33.4264 51.1221 32.5172 52.3911 30.9388Z" fill="#131313"/>
<path fill-rule="evenodd" clip-rule="evenodd" d="M80.2816 55.2163H87.6184L89.3788 60.4188H92.5393L85.59 41.1709H82.3614L75.4121 60.4188H78.5197L80.2816 55.2163ZM86.8571 52.8156H81.0415L83.9099 44.3723H83.9902L86.8571 52.8156Z" fill="#131313"/>
<path fill-rule="evenodd" clip-rule="evenodd" d="M101.691 60.5658C105.213 60.5658 107.547 57.764 107.547 53.4031C107.547 49.0544 105.199 46.2389 101.638 46.2389C99.8049 46.1798 98.0881 47.133 97.1693 48.7198H97.1163V46.3858H94.3281V65.0614H97.2086V58.1106H97.2753C98.1551 59.7075 99.87 60.6611 101.691 60.5658ZM100.878 48.6941C103.118 48.6941 104.586 50.562 104.586 53.4031H104.586C104.586 56.27 103.118 58.1243 100.878 58.1243C98.6769 58.1243 97.1966 56.2307 97.1966 53.4031C97.1966 50.6013 98.6769 48.6941 100.878 48.6941Z" fill="#131313"/>
<path fill-rule="evenodd" clip-rule="evenodd" d="M117.136 60.5658C120.658 60.5658 122.993 57.764 122.993 53.4031C122.993 49.0544 120.645 46.2389 117.083 46.2389C115.25 46.1798 113.533 47.133 112.615 48.7198H112.562V46.3858H109.773V65.0614H112.654V58.1106H112.721C113.6 59.7075 115.315 60.6611 117.136 60.5658ZM116.323 48.6941C118.563 48.6941 120.032 50.562 120.032 53.4031C120.032 56.27 118.563 58.1243 116.323 58.1243C114.122 58.1243 112.642 56.2307 112.642 53.4031C112.642 50.6013 114.122 48.6941 116.323 48.6941Z" fill="#131313"/>
<path fill-rule="evenodd" clip-rule="evenodd" d="M77.0918 35.6751V26.2988H80.8157C82.5563 26.2988 83.6025 27.195 83.6025 28.6376C83.6034 29.6145 82.9244 30.457 81.9786 30.6525V30.763C83.162 30.8196 84.0864 31.8184 84.065 33.0173C84.065 34.6678 82.8778 35.6752 80.8991 35.6752L77.0918 35.6751ZM78.5307 30.2688H80.238C81.5101 30.2688 82.1712 29.7946 82.1712 28.9045C82.1712 28.0398 81.548 27.5333 80.4821 27.5333H78.5307V30.2688ZM82.5942 32.9136C82.5942 33.9073 81.9074 34.4406 80.611 34.4406H78.5307V31.419H80.5276C81.8816 31.419 82.5942 31.9323 82.5942 32.9136Z" fill="#131313"/>
<path fill-rule="evenodd" clip-rule="evenodd" d="M88.1453 31.562C86.482 31.6664 85.5449 32.4007 85.5449 33.6744C85.5473 34.2783 85.8019 34.8531 86.2459 35.2565C86.6899 35.66 87.2819 35.8546 87.8754 35.7921C88.722 35.8317 89.5243 35.4073 89.9754 34.6811H90.0846V35.6755H91.4128V30.8407C91.4128 29.346 90.4242 28.4629 88.6714 28.4629C87.0854 28.4629 85.9558 29.2425 85.8148 30.4579H87.1506C87.3038 29.9576 87.8375 29.6714 88.6077 29.6714C89.5508 29.6714 90.0391 30.0934 90.0391 30.8407V31.4515L88.1453 31.562ZM90.0391 32.4782V33.0697C90.0089 33.5207 89.7992 33.94 89.4579 34.2316C89.1166 34.5232 88.6731 34.6621 88.2287 34.6166C87.4781 34.6166 86.9323 34.246 86.9323 33.6091C86.9323 32.9853 87.369 32.6539 88.3318 32.5886L90.0391 32.4782Z" fill="#131313"/>
<path fill-rule="evenodd" clip-rule="evenodd" d="M93.9058 25.6341C93.574 25.7912 93.3704 26.1372 93.3922 26.5073C93.3944 26.7416 93.4909 26.9649 93.6595 27.1255C93.8281 27.2861 94.0541 27.3702 94.2853 27.3583C94.6516 27.3579 94.9806 27.1314 95.1156 26.7868C95.2505 26.4421 95.1639 26.049 94.8972 25.7948C94.6305 25.5407 94.2376 25.477 93.9058 25.6341ZM94.9721 28.5997H93.5969L93.5969 35.6758H94.9721V28.5997Z" fill="#131313"/>
<path d="M99.7073 33.1673L98.179 35.6756H96.6642L98.9826 32.1537L96.6445 28.5996H98.2563L99.7589 31.0949H99.8681L101.357 28.5996H102.891L100.587 32.0954L102.917 35.6756H101.333L99.8104 33.1673H99.7073Z" fill="#131313"/>
<path fill-rule="evenodd" clip-rule="evenodd" d="M106.735 31.562C105.072 31.6664 104.135 32.4007 104.135 33.6744C104.137 34.2783 104.392 34.8531 104.836 35.2565C105.28 35.66 105.872 35.8546 106.465 35.7921C107.312 35.8317 108.114 35.4073 108.565 34.6811H108.674V35.6755H110.003V30.8407C110.003 29.346 109.014 28.4629 107.261 28.4629C105.675 28.4629 104.546 29.2425 104.405 30.4579H105.74C105.894 29.9576 106.427 29.6714 107.198 29.6714C108.141 29.6714 108.629 30.0934 108.629 30.8407V31.4515L106.735 31.562ZM108.629 32.4782V33.0697C108.599 33.5207 108.389 33.94 108.048 34.2316C107.706 34.5232 107.263 34.6621 106.819 34.6166C106.068 34.6166 105.522 34.246 105.522 33.6091C105.522 32.9853 105.959 32.6539 106.922 32.5886L108.629 32.4782Z" fill="#131313"/>
<path d="M112.164 28.5993H113.492V29.6843H113.595C113.9 28.9116 114.663 28.426 115.483 28.4819C115.69 28.4791 115.896 28.4986 116.099 28.5402V29.9184C115.845 29.8636 115.587 29.8353 115.328 29.834C114.868 29.7921 114.412 29.9489 114.072 30.2657C113.732 30.5825 113.54 31.0298 113.544 31.4975V35.6754H112.164L112.164 28.5993Z" fill="#131313"/>
<path d="M121.416 28.5996H122.745V29.7237H122.848C123.207 28.8961 124.045 28.3898 124.935 28.4631C125.624 28.4106 126.299 28.6782 126.77 29.1902C127.24 29.7022 127.456 30.403 127.354 31.0949V35.6756H125.975V31.4456C125.975 30.3084 125.486 29.7429 124.466 29.7429C123.999 29.7209 123.545 29.9065 123.224 30.2512C122.903 30.5959 122.747 31.0652 122.797 31.5361V35.6757H121.416L121.416 28.5996Z" fill="#131313"/>
<path fill-rule="evenodd" clip-rule="evenodd" d="M131.69 31.562C130.027 31.6664 129.09 32.4007 129.09 33.6744C129.092 34.2783 129.347 34.8531 129.791 35.2565C130.235 35.66 130.827 35.8546 131.42 35.7921C132.267 35.8317 133.069 35.4073 133.52 34.6811H133.629V35.6755H134.958V30.8407C134.958 29.346 133.969 28.4629 132.216 28.4629C130.63 28.4629 129.501 29.2425 129.36 30.4579H130.696C130.849 29.9576 131.382 29.6714 132.153 29.6714C133.096 29.6714 133.584 30.0934 133.584 30.8407V31.4515L131.69 31.562ZM133.584 32.4782V33.0697H133.584C133.554 33.5207 133.344 33.94 133.003 34.2316C132.662 34.5232 132.218 34.6621 131.774 34.6166C131.023 34.6166 130.477 34.246 130.477 33.6091C130.477 32.9853 130.914 32.6539 131.877 32.5886L133.584 32.4782Z" fill="#131313"/>
<path d="M133.201 55.0565C133.414 56.9652 135.268 58.2185 137.802 58.2185C140.23 58.2185 141.977 56.9652 141.977 55.2441C141.977 53.7501 140.923 52.8556 138.429 52.2425L135.934 51.6416C132.4 50.7879 130.759 49.1349 130.759 46.4527C130.759 43.1317 133.653 40.8506 137.761 40.8506C141.83 40.8506 144.618 43.1317 144.712 46.4527H141.804C141.63 44.5318 140.042 43.3724 137.722 43.3724C135.402 43.3724 133.814 44.5455 133.814 46.2529C133.814 47.6137 134.828 48.4144 137.309 49.0274L139.429 49.5481C143.379 50.482 145.018 52.0684 145.018 54.8838C145.018 58.4848 142.151 60.7402 137.589 60.7402C133.32 60.7402 130.438 58.5378 130.252 55.0563L133.201 55.0565Z" fill="#131313"/>
<path d="M151.237 43.0645V46.3855H153.906V48.6666H151.237V56.4029C151.237 57.6048 151.772 58.1648 152.945 58.1648C153.262 58.1593 153.578 58.1371 153.892 58.0982V60.3657C153.365 60.4642 152.829 60.5089 152.292 60.4989C149.451 60.4989 148.343 59.4317 148.343 56.7102V48.6666H146.303V46.3855H148.343V43.0645H151.237Z" fill="#131313"/>
<path fill-rule="evenodd" clip-rule="evenodd" d="M162.105 46.2129C158.05 46.2129 155.449 48.9875 155.449 53.4028C155.449 57.8303 158.024 60.5928 162.105 60.5928C166.187 60.5928 168.762 57.8303 168.762 53.4028C168.762 48.9874 166.174 46.2129 162.105 46.2129ZM162.105 48.5863C164.439 48.5863 165.827 50.374 165.827 53.4028H165.827C165.827 56.4438 164.439 58.2178 162.105 58.2178C159.771 58.2178 158.383 56.4438 158.383 53.4028C158.383 50.3876 159.771 48.5863 162.105 48.5863Z" fill="#131313"/>
<path d="M171.137 46.3856H173.884V48.7742H173.951C174.334 47.2366 175.743 46.1783 177.326 46.2388C177.658 46.2376 177.989 46.2737 178.313 46.3463V49.0406C177.894 48.9125 177.457 48.8538 177.019 48.8665C176.172 48.8322 175.352 49.1697 174.775 49.7904C174.198 50.4111 173.921 51.2531 174.017 52.0952V60.4189H171.137L171.137 46.3856Z" fill="#131313"/>
<path fill-rule="evenodd" clip-rule="evenodd" d="M185.552 60.5928C188.726 60.5928 191.207 58.8445 191.594 56.297L188.859 56.297C188.334 57.5991 187.016 58.4018 185.618 58.2708C184.57 58.3094 183.556 57.8958 182.834 57.1353C182.112 56.3748 181.751 55.3406 181.843 54.2959V54.1218H191.755V53.1349C191.755 48.88 189.313 46.2129 185.431 46.2129C181.483 46.2129 178.936 49.0677 178.936 53.4694C178.936 57.8576 181.469 60.5928 185.552 60.5928ZM188.873 52.1086L181.857 52.1087C181.854 51.1612 182.231 50.252 182.902 49.5832C183.573 48.9144 184.483 48.5413 185.431 48.547C186.371 48.5268 187.277 48.8996 187.93 49.5757C188.583 50.2518 188.925 51.1699 188.873 52.1086Z" fill="#131313"/>
</svg>
