<svg width="229" height="90" viewBox="0 0 229 90" fill="none" xmlns="http://www.w3.org/2000/svg">
<rect x="1" y="1" width="227" height="88" rx="7" fill="white" stroke="white" stroke-width="2"/>
<path fill-rule="evenodd" clip-rule="evenodd" d="M168.382 59.9461H171.111V41.6611H168.382V59.9461ZM192.965 48.2476L189.836 56.1753H189.743L186.496 48.2476H183.556L188.425 59.3274L185.649 65.4911H188.496L196 48.2476H192.965ZM177.487 57.8691C176.592 57.8691 175.346 57.4229 175.346 56.3172C175.346 54.9057 176.899 54.3645 178.239 54.3645C179.44 54.3645 180.003 54.6234 180.733 54.9759C180.52 56.6697 179.062 57.8691 177.487 57.8691ZM177.816 47.8483C175.84 47.8483 173.794 48.7186 172.947 50.6478L175.369 51.6585C175.887 50.6478 176.851 50.3173 177.863 50.3173C179.274 50.3173 180.709 51.1642 180.733 52.6707V52.8579C180.238 52.5756 179.181 52.1529 177.886 52.1529C175.275 52.1529 172.616 53.5878 172.616 56.2689C172.616 58.716 174.758 60.2927 177.156 60.2927C178.992 60.2927 180.003 59.4692 180.639 58.5039H180.733V59.9154H183.367V52.9062C183.367 49.6591 180.945 47.8483 177.816 47.8483ZM160.948 50.4738H157.066V44.2062H160.948C162.989 44.2062 164.147 45.8956 164.147 47.3392C164.147 48.7566 162.989 50.4738 160.948 50.4738ZM160.878 41.6611H154.339V59.9461H157.066V53.0188H160.878C163.903 53.0188 166.877 50.8277 166.877 47.3392C166.877 43.8508 163.903 41.6611 160.878 41.6611ZM125.217 57.872C123.331 57.872 121.753 56.2938 121.753 54.1261C121.753 51.935 123.331 50.3319 125.217 50.3319C127.079 50.3319 128.538 51.935 128.538 54.1261C128.538 56.2938 127.079 57.872 125.217 57.872ZM128.35 49.2714H128.256C127.643 48.5416 126.466 47.8819 124.981 47.8819C121.87 47.8819 119.019 50.6142 119.019 54.1261C119.019 57.6131 121.87 60.3234 124.981 60.3234C126.466 60.3234 127.643 59.6638 128.256 58.909H128.35V59.8042C128.35 62.1854 127.079 63.458 125.028 63.458C123.355 63.458 122.318 62.2556 121.893 61.242L119.514 62.2322C120.197 63.8821 122.012 65.9079 125.028 65.9079C128.233 65.9079 130.943 64.0226 130.943 59.4283V48.2578H128.35V49.2714ZM132.828 59.9461H135.562V41.6597H132.828V59.9461ZM139.59 53.914C139.52 51.5108 141.452 50.2851 142.842 50.2851C143.927 50.2851 144.846 50.8263 145.151 51.6044L139.59 53.914ZM148.074 51.8399C147.556 50.4504 145.976 47.8819 142.748 47.8819C139.544 47.8819 136.881 50.4021 136.881 54.1027C136.881 57.5897 139.52 60.3234 143.054 60.3234C145.906 60.3234 147.556 58.5799 148.239 57.5663L146.118 56.1519C145.412 57.1889 144.445 57.872 143.054 57.872C141.664 57.872 140.674 57.2357 140.038 55.9881L148.356 52.5478L148.074 51.8399ZM81.8029 49.7907V52.4294H88.1173C87.9286 53.914 87.4342 54.9978 86.6809 55.7526C85.7609 56.6711 84.3231 57.6833 81.8029 57.6833C77.9151 57.6833 74.8742 54.5503 74.8742 50.6625C74.8742 46.7732 77.9151 43.6401 81.8029 43.6401C83.9003 43.6401 85.4318 44.4651 86.5624 45.5255L88.4244 43.6635C86.8447 42.1555 84.7487 41 81.8029 41C76.4773 41 72 45.3368 72 50.6625C72 55.9881 76.4773 60.3234 81.8029 60.3234C84.677 60.3234 86.8447 59.3815 88.5414 57.6131C90.2849 55.8696 90.8276 53.4196 90.8276 51.4391C90.8276 50.8263 90.7808 50.2617 90.6857 49.7907H81.8029ZM98.0079 57.872C96.1225 57.872 94.496 56.3172 94.496 54.1027C94.496 51.8633 96.1225 50.3319 98.0079 50.3319C99.8918 50.3319 101.518 51.8633 101.518 54.1027C101.518 56.3172 99.8918 57.872 98.0079 57.872ZM98.0079 47.8819C94.5662 47.8819 91.7622 50.4972 91.7622 54.1027C91.7622 57.6833 94.5662 60.3234 98.0079 60.3234C101.448 60.3234 104.252 57.6833 104.252 54.1027C104.252 50.4972 101.448 47.8819 98.0079 47.8819ZM111.63 57.872C109.744 57.872 108.118 56.3172 108.118 54.1027C108.118 51.8633 109.744 50.3319 111.63 50.3319C113.515 50.3319 115.14 51.8633 115.14 54.1027C115.14 56.3172 113.515 57.872 111.63 57.872ZM111.63 47.8819C108.19 47.8819 105.386 50.4972 105.386 54.1027C105.386 57.6833 108.19 60.3234 111.63 60.3234C115.07 60.3234 117.874 57.6833 117.874 54.1027C117.874 50.4972 115.07 47.8819 111.63 47.8819Z" fill="#131313"/>
<path fill-rule="evenodd" clip-rule="evenodd" d="M73.1512 34.1326H74.5597C75.475 34.1326 76.2011 33.8707 76.7367 33.3444C77.2737 32.8206 77.5408 32.0853 77.5408 31.1396C77.5408 30.2019 77.2737 29.4679 76.7367 28.9388C76.2011 28.4125 75.475 28.1466 74.5597 28.1466H73.1512V34.1326ZM72.1328 35.1074V27.1719H74.5597C75.7792 27.1719 76.7539 27.5396 77.4866 28.2749C78.2167 29.0103 78.583 29.9638 78.583 31.1396C78.583 32.3141 78.2167 33.269 77.4866 34.0043C76.7539 34.7397 75.7792 35.1074 74.5597 35.1074H72.1328Z" fill="#131313"/>
<path fill-rule="evenodd" clip-rule="evenodd" d="M73.1506 34.1321V34.2643H74.5592C75.4982 34.2656 76.2653 33.9919 76.8287 33.439C77.3948 32.8862 77.6739 32.1085 77.6725 31.1391C77.6739 30.1762 77.3948 29.4012 76.8301 28.8444C76.2666 28.2889 75.4995 28.0138 74.5592 28.0138H73.0184V34.2643H73.1506V34.1321H73.2829V28.2783H74.5592C75.4506 28.2796 76.1357 28.5336 76.6436 29.0335C77.1501 29.5335 77.4067 30.2252 77.408 31.1391C77.4067 32.0609 77.1501 32.7539 76.6436 33.2499C76.1357 33.7472 75.4506 33.9985 74.5592 33.9998H73.1506V34.1321H73.2829H73.1506ZM72.1323 35.1068H72.2645V27.3036H74.5592C75.7522 27.3049 76.6859 27.6594 77.3922 28.3669C78.0971 29.0772 78.4489 29.9911 78.4502 31.1391C78.4489 32.2871 78.0971 33.201 77.3922 33.9112C76.6859 34.6188 75.7522 34.9732 74.5592 34.9745H72.1323V35.1068H72.2645H72.1323V35.2391H74.5592C75.8037 35.2404 76.8208 34.8608 77.58 34.0977C78.3365 33.3372 78.7161 32.34 78.7147 31.1391C78.7161 29.9368 78.3365 28.9409 77.58 28.1818C76.8208 27.4173 75.8037 27.0377 74.5592 27.0391H72V35.2391H72.1323V35.1068Z" fill="#131313"/>
<path fill-rule="evenodd" clip-rule="evenodd" d="M80.0128 35.1074H81.0325V27.1719H80.0128V35.1074Z" fill="#131313"/>
<path fill-rule="evenodd" clip-rule="evenodd" d="M80.0134 35.1068H80.1457V27.3036H80.8996V34.9745H80.0134V35.1068H80.1457H80.0134V35.2391H81.1641V27.0391H79.8812V35.2391H80.0134V35.1068Z" fill="#131313"/>
<path fill-rule="evenodd" clip-rule="evenodd" d="M85.0892 35.2841C84.5125 35.2841 83.9491 35.0963 83.3989 34.7193C82.8474 34.3424 82.4876 33.8134 82.3184 33.1336L83.2495 32.7579C83.3606 33.1931 83.5867 33.5608 83.9306 33.8597C84.2758 34.1586 84.6606 34.308 85.0892 34.308C85.5322 34.308 85.9118 34.1929 86.2253 33.9602C86.5387 33.7274 86.6961 33.4113 86.6961 33.0119C86.6961 32.5688 86.5387 32.2276 86.2253 31.9869C85.9118 31.7462 85.4145 31.524 84.7347 31.3163C84.0324 31.0955 83.5007 30.8085 83.1384 30.4567C82.7773 30.1062 82.5948 29.6578 82.5948 29.1103C82.5948 28.5416 82.8209 28.0469 83.2719 27.6263C83.7229 27.2044 84.3102 26.9941 85.0336 26.9941C85.7068 26.9941 86.253 27.1621 86.6736 27.498C87.0942 27.8353 87.368 28.2017 87.4936 28.6011L86.5638 28.9886C86.4964 28.7386 86.3324 28.5045 86.0705 28.2903C85.8086 28.0773 85.4701 27.9702 85.0548 27.9702C84.6633 27.9702 84.33 28.0787 84.0536 28.2969C83.7758 28.5151 83.637 28.7862 83.637 29.1103C83.637 29.4065 83.7653 29.6552 84.0192 29.8589C84.2758 30.0625 84.6501 30.245 85.1447 30.4077C85.5362 30.5334 85.8629 30.655 86.1261 30.7741C86.3879 30.8918 86.6538 31.0492 86.9236 31.2449C87.1934 31.4407 87.3957 31.684 87.532 31.9763C87.6695 32.2686 87.7383 32.6059 87.7383 32.9894C87.7383 33.3743 87.6589 33.7181 87.5002 34.021C87.3415 34.3239 87.1299 34.5633 86.868 34.7418C86.6048 34.9177 86.3231 35.0526 86.0203 35.1452C85.7161 35.2378 85.4066 35.2841 85.0892 35.2841Z" fill="#131313"/>
<path fill-rule="evenodd" clip-rule="evenodd" d="M85.089 35.2845V35.1522C84.5414 35.1522 84.0071 34.975 83.4741 34.6113C82.949 34.2502 82.6105 33.7556 82.4465 33.1022L82.3182 33.134L82.3671 33.257L83.2995 32.8801L83.2493 32.7584L83.121 32.7901C83.2387 33.2517 83.4807 33.6445 83.8431 33.9606C84.2081 34.2767 84.6287 34.442 85.089 34.442C85.5545 34.442 85.9659 34.3177 86.3044 34.0664C86.6496 33.8138 86.8308 33.4461 86.8282 33.0123C86.8308 32.5388 86.6536 32.146 86.3058 31.8828C85.9698 31.6262 85.4606 31.4001 84.7729 31.1898H84.7742C84.0851 30.9742 83.5707 30.6938 83.2308 30.3632C82.8948 30.0352 82.7282 29.6292 82.7269 29.1107C82.7282 28.5777 82.9332 28.1254 83.3617 27.7233C83.7862 27.3279 84.3351 27.1268 85.0334 27.1268C85.6855 27.1268 86.1973 27.2882 86.5914 27.6016C86.9975 27.927 87.2514 28.2735 87.3678 28.6412L87.4934 28.6015L87.4432 28.4798L86.5134 28.8673L86.5637 28.989L86.6919 28.9546C86.6152 28.6716 86.4314 28.415 86.1537 28.1889C85.8653 27.9521 85.491 27.8371 85.0546 27.8384C84.6393 27.8371 84.2716 27.9548 83.9714 28.1928C83.6672 28.4282 83.5032 28.7483 83.5045 29.1107C83.5032 29.4466 83.6566 29.7429 83.937 29.9624V29.9638C84.2121 30.1807 84.5996 30.3685 85.1035 30.5338C85.4924 30.6581 85.8151 30.7785 86.0717 30.8949C86.3243 31.0073 86.5822 31.1607 86.8454 31.3512V31.3525C87.098 31.535 87.2845 31.7612 87.4128 32.0323C87.5397 32.3047 87.6059 32.6222 87.6059 32.9898C87.6059 33.3562 87.5305 33.6776 87.3837 33.9593C87.2329 34.2463 87.0371 34.4672 86.7925 34.6325H86.7938C86.5412 34.8018 86.2727 34.9314 85.9817 35.02C85.6908 35.1086 85.3932 35.1522 85.089 35.1522V35.4168C85.4196 35.4168 85.7423 35.3692 86.0584 35.2726C86.3745 35.1761 86.6681 35.0359 86.9419 34.8507C87.2223 34.6616 87.4498 34.4037 87.6178 34.0823C87.787 33.7596 87.8704 33.3932 87.8704 32.9898C87.8704 32.5904 87.7989 32.232 87.6521 31.9199C87.5067 31.6091 87.2871 31.3459 87.0001 31.1382C86.725 30.9372 86.4526 30.7758 86.1801 30.6528C85.9103 30.5312 85.5797 30.4095 85.1842 30.2825H85.1855C84.7001 30.1238 84.3378 29.9439 84.101 29.7561H84.1023C83.8722 29.5696 83.7717 29.3673 83.769 29.1107C83.7717 28.825 83.8828 28.6015 84.1341 28.4005H84.1354C84.3867 28.2021 84.6882 28.1029 85.0546 28.1029C85.4474 28.1029 85.7516 28.2021 85.987 28.3939L85.9883 28.3952L85.987 28.3939C86.2343 28.5962 86.3772 28.8052 86.4354 29.0234L86.475 29.1689L87.545 28.7232L87.6561 28.6769L87.6204 28.5618C87.4855 28.132 87.1919 27.7432 86.7568 27.3953C86.3071 27.0369 85.7278 26.861 85.0334 26.8623C84.2849 26.861 83.6579 27.0832 83.1818 27.5302C82.7083 27.9693 82.461 28.5063 82.4623 29.1107C82.461 29.6873 82.6594 30.178 83.0469 30.5523C83.4291 30.924 83.9793 31.2176 84.6949 31.4424H84.6962C85.368 31.6474 85.8534 31.8683 86.1444 32.0931C86.4248 32.31 86.561 32.5997 86.5637 33.0123C86.561 33.3773 86.4288 33.6419 86.147 33.8548C85.8574 34.0677 85.5082 34.1762 85.089 34.1775C84.6909 34.1762 84.3417 34.0413 84.0164 33.7609H84.0177C83.6923 33.4779 83.4834 33.1366 83.3776 32.7253L83.3405 32.5785L82.2692 33.0123L82.1621 33.0546L82.1899 33.1657C82.3645 33.8733 82.7467 34.4354 83.3247 34.8295C83.892 35.2171 84.4832 35.4168 85.089 35.4168V35.2845Z" fill="#131313"/>
<path fill-rule="evenodd" clip-rule="evenodd" d="M90.2189 30.9174H91.9264C92.3549 30.9174 92.6988 30.7746 92.9567 30.4863C93.2146 30.1979 93.3442 29.8805 93.3442 29.5327C93.3442 29.1848 93.2146 28.8674 92.9567 28.5804C92.6988 28.2908 92.3549 28.1466 91.9264 28.1466H90.2189V30.9174ZM90.2189 35.1074H89.1992V27.1719H91.9039C92.5758 27.1719 93.1577 27.3954 93.6484 27.8424C94.1404 28.2895 94.3864 28.8529 94.3864 29.5327C94.3864 30.2125 94.1404 30.7759 93.6484 31.2229C93.1577 31.67 92.5758 31.8935 91.9039 31.8935H90.2189V35.1074Z" fill="#131313"/>
<path fill-rule="evenodd" clip-rule="evenodd" d="M90.2203 30.9169V31.0491H91.9278C92.3854 31.0505 92.7742 30.8904 93.0559 30.5743H93.0573C93.3324 30.2662 93.4792 29.913 93.4778 29.5321C93.4792 29.1512 93.3324 28.7981 93.0559 28.4913H93.0573C92.7742 28.1738 92.3854 28.0125 91.9278 28.0138H90.0881V31.0491H90.2203V30.9169H90.3526V28.2783H91.9278C92.3272 28.281 92.6248 28.4079 92.8589 28.6672L92.8615 28.6698L92.8589 28.6672C93.0996 28.937 93.212 29.2187 93.2133 29.5321C93.212 29.8456 93.0996 30.1273 92.8589 30.3971C92.6248 30.6563 92.3272 30.7833 91.9278 30.7846H90.2203V30.9169H90.3526H90.2203ZM90.2203 35.1068V34.9746H89.3329V27.3036H91.9053C92.5481 27.3049 93.0916 27.5139 93.5612 27.9397C94.028 28.3656 94.2542 28.8841 94.2555 29.5321C94.2542 30.1802 94.028 30.6986 93.5612 31.1245C93.0916 31.5504 92.5481 31.7594 91.9053 31.7607H90.0881V35.1068H90.2203V34.9746V35.1068H90.3526V32.0252H91.9053C92.6063 32.0265 93.2266 31.7885 93.7397 31.3189C94.2568 30.8507 94.5214 30.2437 94.52 29.5321C94.5214 28.8206 94.2568 28.2122 93.7397 27.744C93.2266 27.2758 92.6063 27.0377 91.9053 27.0391H89.0684V35.2391H90.3526V35.1068H90.2203Z" fill="#131313"/>
<path fill-rule="evenodd" clip-rule="evenodd" d="M97.0955 33.4166C97.6828 34.0118 98.4009 34.308 99.2513 34.308C100.1 34.308 100.82 34.0118 101.407 33.4166C101.994 32.8214 102.289 32.0623 102.289 31.1391C102.289 30.2159 101.994 29.4568 101.407 28.8616C100.82 28.2665 100.1 27.9702 99.2513 27.9702C98.4009 27.9702 97.6828 28.2665 97.0955 28.8616C96.5096 29.4568 96.2147 30.2159 96.2147 31.1391C96.2147 32.0623 96.5096 32.8214 97.0955 33.4166ZM102.161 34.0819C101.381 34.8833 100.411 35.2841 99.2513 35.2841C98.0914 35.2841 97.1207 34.8833 96.343 34.0819C95.5627 33.2804 95.1738 32.299 95.1738 31.1391C95.1738 29.9792 95.5627 28.9979 96.343 28.1964C97.1207 27.3949 98.0914 26.9941 99.2513 26.9941C100.405 26.9941 101.371 27.3962 102.156 28.2017C102.939 29.0071 103.33 29.9858 103.33 31.1391C103.33 32.299 102.94 33.2804 102.161 34.0819Z" fill="#131313"/>
<path fill-rule="evenodd" clip-rule="evenodd" d="M97.0969 33.417L97.003 33.5096C97.6114 34.1286 98.3719 34.4433 99.2527 34.442C100.134 34.4433 100.894 34.1286 101.502 33.5096C102.115 32.892 102.424 32.0905 102.423 31.1395C102.424 30.1886 102.115 29.3884 101.502 28.7695C100.894 28.1505 100.134 27.837 99.2527 27.8384C98.3719 27.837 97.6114 28.1505 97.003 28.7695L96.9991 28.7734L97.003 28.7695C96.3907 29.3884 96.0825 30.1886 96.0838 31.1395C96.0825 32.0905 96.3907 32.892 97.003 33.5096L97.1908 33.3244C96.6301 32.7544 96.3497 32.0349 96.3484 31.1395C96.3497 30.2441 96.6301 29.5247 97.1908 28.9546C97.7569 28.3833 98.4341 28.1042 99.2527 28.1029C100.071 28.1042 100.75 28.3833 101.313 28.9546H101.315C101.877 29.526 102.157 30.2441 102.158 31.1395C102.157 32.0349 101.877 32.7531 101.315 33.3244C100.75 33.8958 100.071 34.1762 99.2527 34.1775C98.4341 34.1749 97.7569 33.8958 97.1908 33.3244L97.0969 33.417ZM102.162 34.0823L102.067 33.9897C101.309 34.7674 100.382 35.1509 99.2527 35.1522C98.1233 35.1509 97.1948 34.7674 96.4383 33.9897L96.4343 33.9857L96.4383 33.9897C95.6818 33.2107 95.3088 32.2703 95.3075 31.1395C95.3088 30.0087 95.6818 29.0684 96.4383 28.2894C97.1948 27.5117 98.1233 27.1281 99.2527 27.1268C100.376 27.1281 101.3 27.5143 102.062 28.2947C102.822 29.0776 103.198 30.0167 103.199 31.1395C103.198 32.2703 102.824 33.2107 102.067 33.9897L102.258 34.1735C103.059 33.3509 103.465 32.3285 103.464 31.1395C103.465 29.9571 103.058 28.9374 102.252 28.1108C101.447 27.2802 100.436 26.861 99.2527 26.8623C98.0624 26.861 97.0493 27.2789 96.2492 28.1055C95.445 28.9295 95.0416 29.9505 95.043 31.1395C95.0416 32.3285 95.445 33.3509 96.2492 34.1735C97.0493 35.0015 98.0624 35.4181 99.2527 35.4168C100.443 35.4181 101.455 35.0015 102.258 34.1735L102.162 34.0823Z" fill="#131313"/>
<path fill-rule="evenodd" clip-rule="evenodd" d="M104.762 35.1074V27.1719H106.002L109.859 33.3444H109.903L109.859 31.8155V27.1719H110.88V35.1074H109.815L105.78 28.6346H105.736L105.78 30.1649V35.1074H104.762Z" fill="#131313"/>
<path fill-rule="evenodd" clip-rule="evenodd" d="M104.761 35.1068H104.893V27.3036H105.929L109.786 33.4774H110.038L109.991 31.8136V27.3036H110.747V34.9745H109.889L105.854 28.5018H105.6L105.647 30.1656V34.9745H104.761V35.1068H104.893H104.761V35.2391H105.912V30.1617L105.868 28.6314L105.736 28.6341V28.7664H105.78V28.6341L105.667 28.7042L109.742 35.2391H111.012V27.0391H109.726V31.8162L109.771 33.3478L109.902 33.3438V33.2129H109.858V33.3438L109.971 33.275L106.076 27.0391H104.629V35.2391H104.761V35.1068Z" fill="#131313"/>
<path fill-rule="evenodd" clip-rule="evenodd" d="M113.65 26.551H112.763L113.34 25.1318H114.448L113.65 26.551ZM112.697 35.1067H113.717V27.1713H112.697V35.1067Z" fill="#131313"/>
<path fill-rule="evenodd" clip-rule="evenodd" d="M113.649 26.5514V26.4191H112.959L113.428 25.2645H114.222L113.534 26.4866L113.649 26.5514V26.4191V26.5514L113.765 26.6162L114.674 25H113.251L112.566 26.6836H113.727L113.765 26.6162L113.649 26.5514ZM112.697 35.1072H112.829V27.3039H113.583V34.9749H112.697V35.1072H112.829H112.697V35.2394H113.847V27.0394H112.564V35.2394H112.697V35.1072Z" fill="#131313"/>
<path fill-rule="evenodd" clip-rule="evenodd" d="M117.496 35.1074L114.703 27.1719H115.834L118.006 33.6115H118.051L120.312 27.1719H121.442L118.56 35.1074H117.496Z" fill="#131313"/>
<path fill-rule="evenodd" clip-rule="evenodd" d="M117.495 35.1068L117.62 35.0632L114.89 27.3036H115.738L117.911 33.7432H118.143L120.405 27.3036H121.252L118.466 34.9745H117.495V35.1068L117.62 35.0632L117.495 35.1068V35.2391H118.653L121.63 27.0391H120.217L117.924 33.5673L118.05 33.611V33.4787H118.005V33.611L118.13 33.5686L115.928 27.0391H114.516L117.401 35.2391H117.495V35.1068Z" fill="#131313"/>
<path fill-rule="evenodd" clip-rule="evenodd" d="M127.227 28.1466H123.613V30.6635H126.872V31.6157H123.613V34.1326H127.227V35.1074H122.594V27.1719H127.227V28.1466Z" fill="#131313"/>
<path fill-rule="evenodd" clip-rule="evenodd" d="M127.226 28.1461V28.0138H123.481V30.7952H126.739V31.4829H123.481V34.2643H127.094V34.9745H122.725V27.3036H127.094V28.1461H127.226V28.0138V28.1461H127.358V27.0391H122.461V35.2391H127.358V33.9998H123.745V31.7474H127.004V30.5307H123.745V28.2783H127.358V28.1461H127.226Z" fill="#131313"/>
<path fill-rule="evenodd" clip-rule="evenodd" d="M128.824 35.1074V27.1719H129.844V34.1326H133.279V35.1074H128.824Z" fill="#131313"/>
<path fill-rule="evenodd" clip-rule="evenodd" d="M128.824 35.1068H128.956V27.3036H129.711V34.2643H133.146V34.9745H128.824V35.1068H128.956H128.824V35.2391H133.41V33.9998H129.976V27.0391H128.691V35.2391H128.824V35.1068Z" fill="#131313"/>
<path fill-rule="evenodd" clip-rule="evenodd" d="M137.225 35.1074V27.1719H138.465L142.322 33.3444H142.365L142.322 31.8155V27.1719H143.343V35.1074H142.278L138.243 28.6346H138.199L138.243 30.1649V35.1074H137.225Z" fill="#131313"/>
<path fill-rule="evenodd" clip-rule="evenodd" d="M137.224 35.1068H137.356V27.3036H138.392L142.249 33.4774H142.501L142.454 31.8136V27.3036H143.21V34.9745H142.35L138.317 28.5018H138.063L138.11 30.1656V34.9745H137.224V35.1068H137.356H137.224V35.2391H138.375V30.1617L138.331 28.6314L138.199 28.6341V28.7664H138.242V28.6341L138.13 28.7042L142.204 35.2391H143.475V27.0391H142.189V31.8175L142.233 33.3478L142.365 33.3438V33.2129H142.321V33.3438L142.434 33.275L138.539 27.0391H137.092V35.2391H137.224V35.1068Z" fill="#131313"/>
<path fill-rule="evenodd" clip-rule="evenodd" d="M146.582 33.4166C147.169 34.0118 147.887 34.308 148.738 34.308C149.587 34.308 150.306 34.0118 150.893 33.4166C151.481 32.8214 151.776 32.0623 151.776 31.1391C151.776 30.2159 151.481 29.4568 150.893 28.8616C150.306 28.2665 149.587 27.9702 148.738 27.9702C147.887 27.9702 147.169 28.2665 146.582 28.8616C145.996 29.4568 145.701 30.2159 145.701 31.1391C145.701 32.0623 145.996 32.8214 146.582 33.4166ZM151.647 34.0819C150.867 34.8833 149.898 35.2841 148.738 35.2841C147.578 35.2841 146.607 34.8833 145.829 34.0819C145.049 33.2804 144.66 32.299 144.66 31.1391C144.66 29.9792 145.049 28.9979 145.829 28.1964C146.607 27.3949 147.578 26.9941 148.738 26.9941C149.891 26.9941 150.858 27.3962 151.642 28.2017C152.425 29.0071 152.817 29.9858 152.817 31.1391C152.817 32.299 152.426 33.2804 151.647 34.0819Z" fill="#131313"/>
<path fill-rule="evenodd" clip-rule="evenodd" d="M146.581 33.417L146.487 33.5096C147.096 34.1286 147.856 34.4433 148.737 34.442C149.618 34.4433 150.378 34.1286 150.987 33.5096C151.599 32.892 151.909 32.0905 151.907 31.1395C151.909 30.1886 151.599 29.3884 150.987 28.7695C150.378 28.1505 149.618 27.837 148.737 27.8384C147.856 27.837 147.096 28.1505 146.487 28.7695C145.875 29.3884 145.567 30.1886 145.568 31.1395C145.567 32.0905 145.875 32.892 146.487 33.5096L146.675 33.3244C146.114 32.7544 145.834 32.0349 145.833 31.1395C145.834 30.2441 146.114 29.5247 146.675 28.9546C147.241 28.3833 147.918 28.1042 148.737 28.1029C149.556 28.1042 150.234 28.3833 150.798 28.9546H150.799C151.361 29.526 151.642 30.2441 151.643 31.1395C151.642 32.0349 151.361 32.7531 150.799 33.3244C150.234 33.8958 149.556 34.1762 148.737 34.1775C147.918 34.1749 147.241 33.8958 146.675 33.3244L146.581 33.417ZM151.647 34.0823L151.552 33.9897C150.794 34.7674 149.867 35.1509 148.737 35.1522C147.608 35.1509 146.679 34.7674 145.923 33.9897C145.166 33.2107 144.793 32.2703 144.792 31.1395C144.793 30.0087 145.166 29.0684 145.923 28.2894C146.679 27.5117 147.608 27.1281 148.737 27.1268C149.86 27.1281 150.784 27.5143 151.546 28.2947C152.307 29.0776 152.682 30.0167 152.684 31.1395C152.682 32.2703 152.308 33.2107 151.552 33.9897L151.742 34.1735C152.544 33.3509 152.95 32.3285 152.948 31.1395C152.95 29.9571 152.542 28.9374 151.737 28.1108C150.931 27.2802 149.921 26.861 148.737 26.8623C147.547 26.861 146.534 27.2789 145.734 28.1055C144.929 28.9295 144.526 29.9505 144.527 31.1395C144.526 32.3285 144.929 33.3509 145.734 34.1735C146.534 35.0015 147.547 35.4181 148.737 35.4168C149.927 35.4181 150.939 35.0015 151.742 34.1735L151.647 34.0823Z" fill="#131313"/>
<path fill-rule="evenodd" clip-rule="evenodd" d="M34.6748 58.9667L47.1205 46.5565L51.5075 50.9304L36.7123 59.1334C36.1497 59.4454 35.4607 59.4406 34.9017 59.1204L34.6748 58.9667ZM45.8655 45.3049L34 57.1361V33.4737L45.8655 45.3049ZM53.2802 40.4157L59.077 43.6291C59.6466 43.9458 60 44.5391 60 45.182C60 45.8249 59.6466 46.4182 59.077 46.7349L53.1218 50.0357L48.3768 45.3049L53.2802 40.4157ZM34.5436 31.5119C34.65 31.4091 34.7694 31.3193 34.9017 31.2436C35.4607 30.9234 36.1497 30.9186 36.7123 31.2306L51.6658 39.5211L47.1205 44.0534L34.5436 31.5119Z" fill="#131313"/>
</svg>
